<svg id="Layer_1" data-name="Layer 1" xmlns="http://www.w3.org/2000/svg" viewBox="0 0 985.69 264.84"><defs><style>.cls-1{fill:#fcfbfa;}.cls-2{fill:#252526;}.cls-3{fill:#e0e0e0;}.cls-4{fill:#56555c;}</style></defs><title>Artboard 33</title><path class="cls-1" d="M128.43,19.82c45.4,0,82.21,97.59,82.21,143a82.21,82.21,0,1,1-164.43,0C46.21,117.41,83,19.82,128.43,19.82Z"/><path class="cls-2" d="M232.67,98.58l-33.54,11.83s5.19,15.78,5.24,15.9,33.41-4.3,33.41-4.3Z"/><path class="cls-2" d="M24.18,98.58l33.54,11.83s-5.19,15.78-5.24,15.9S19.08,122,19.08,122Z"/><path class="cls-3" d="M93.91,95.78a10.46,10.46,0,0,1,10.57,8.8,137.84,137.84,0,0,1,2.1,17.29,22.14,22.14,0,0,1-.44,4.84c-.42-4.18-1-8.16-1.65-11.62a10.46,10.46,0,0,0-10.57-8.8,286.72,286.72,0,0,0-37.67,2.86c1.18-3.67,2.45-7.35,3.81-11A284.59,284.59,0,0,1,93.91,95.78Z"/><path class="cls-3" d="M210.48,159.17c-29.61-1.53-54.9-11-60.61-14.39-4.45-2.13-10.13-6.64-11.76-17.92C137,139.28,139.37,150.61,151,156.2c.86.52,23.2,11.57,59.25,13.47.19-2.26.29-4.54.29-6.85C210.56,161.63,210.53,160.41,210.48,159.17Z"/><path class="cls-3" d="M46.45,159.17c29.61-1.53,54.9-11,60.61-14.39,4.45-2.13,10.13-6.64,11.76-17.92,1.09,12.43-1.25,23.75-12.92,29.34-.86.52-23.2,11.57-59.25,13.47-.19-2.26-.29-4.54-.29-6.85C46.37,161.63,46.4,160.41,46.45,159.17Z"/><path class="cls-3" d="M162.85,95.78a10.46,10.46,0,0,0-10.57,8.8,137.84,137.84,0,0,0-2.1,17.29,22.14,22.14,0,0,0,.44,4.84c.42-4.18,1-8.16,1.65-11.62a10.46,10.46,0,0,1,10.57-8.8,286.72,286.72,0,0,1,37.67,2.86c-1.18-3.67-2.45-7.35-3.81-11A284.59,284.59,0,0,0,162.85,95.78Z"/><path class="cls-4" d="M56.51,86.88c8.07-19.58,17.76-36.52,28-49,13.95-16.92,28.72-25.5,43.89-25.5S158.37,21,172.31,37.91c10.28,12.46,20,29.4,28,49l.39,1-1-.14c-2.85-.38-5.17-.65-8-1l-.35,0-.14-.32c-9.08-21.2-24.58-48.89-44.61-60.46a36.25,36.25,0,0,0-18.18-5.28,36.25,36.25,0,0,0-18.18,5.28c-20,11.56-35.47,39.15-44.62,60.46l-.14.32-.35,0c-2.85.3-5.17.58-8,1l-1,.14Z"/><path class="cls-4" d="M211.43,148.93c-2.23-.06-4.48-.15-6.69-.28l-.69,0-.09-.69c-2-15.59-6.48-33.84-12.7-51.38l-.45-1.28,1.35.18c2.54.34,5,.72,7.4,1.12l.49.08.16.47c6,17.51,10.25,35.58,12.07,50.88l.11,1Z"/><path class="cls-2" d="M204.09,109.43c-1.2-4.11-2.5-8.22-3.89-12.31l-.16-.47-.49-.08c-2.36-.4-4.85-.78-7.4-1.12l-1.35-.18.45,1.28c1.38,3.89,2.67,7.81,3.87,11.74C199.44,108.78,201.89,109.12,204.09,109.43Z"/><path class="cls-4" d="M45.14,147.64c1.82-15.3,6.11-33.37,12.07-50.88l.16-.47.49-.08c2.36-.4,4.85-.78,7.4-1.12l1.35-.18-.45,1.28c-6.21,17.54-10.72,35.78-12.7,51.38l-.09.69-.69,0c-2.22.13-4.47.22-6.69.28l-1,0Z"/><path class="cls-2" d="M57.86,96.21l-.49.08-.16.47c-1.39,4.09-2.69,8.22-3.89,12.33,4.17-.53,5.38-.47,8.87-.84,1.23-4,2.55-8.07,4-12.06l.45-1.28-1.35.18C62.71,95.44,60.22,95.81,57.86,96.21Z"/><path class="cls-4" d="M128.43,252.42A89.65,89.65,0,0,1,45,195.64a90.76,90.76,0,0,1-6.13-36.49l0-.56h.56c2.92-.07,4.92-.15,7-.26l.65,0,0,.65a81.59,81.59,0,0,0,5.43,33.37,81.4,81.4,0,0,0,134.59,26.87,80.63,80.63,0,0,0,17.15-26.86,81.56,81.56,0,0,0,5.43-33.37l0-.65.65,0c2.91.15,4.91.21,7,.26h.56l0,.56a90.77,90.77,0,0,1-6.13,36.46,89.56,89.56,0,0,1-83.41,56.81Z"/><path class="cls-2" d="M47.35,169.67a88.23,88.23,0,0,1-.22-10.74l0-.65-.65,0c-2.1.11-4.1.19-7,.26h-.56l0,.56a95.23,95.23,0,0,0,.24,10.77h.27c2.7,0,5.34-.12,7.85-.24Z"/><path class="cls-2" d="M217.94,158.59h-.56c-2.12,0-4.12-.11-7-.26l-.65,0,0,.65a88.21,88.21,0,0,1-.21,10.64l8.2.35a95.13,95.13,0,0,0,.24-10.77Z"/><path class="cls-2" d="M222.56,160a195.3,195.3,0,0,1-50.78-6.31A122.92,122.92,0,0,1,151,146.26l-.16-.07c-14-6.69-14.51-20.09-13.21-32.32.33-3.09-.8-7.17-4.06-9.33a9.24,9.24,0,0,0-10.26,0c-3.26,2.16-4.39,6.24-4.06,9.32,1.3,12.24.75,25.66-13.21,32.35l-.16.08a123,123,0,0,1-20.75,7.4A195.3,195.3,0,0,1,34.37,160H34.3a15.47,15.47,0,0,1-15-11.64c-2.62-10.25-6.16-25.53-6.57-40A14.16,14.16,0,0,1,21.12,95C40.4,86.42,79.41,83.27,96.05,83.5a21.52,21.52,0,0,1,15.46,6.4,41.54,41.54,0,0,1,17-3.92,41.55,41.55,0,0,1,17,3.92,21.44,21.44,0,0,1,15.46-6.4c10-.14,52.95,1.71,74.93,11.51a14.17,14.17,0,0,1,8.42,13.39c-.41,14.46-4,29.71-6.57,40a15.47,15.47,0,0,1-15,11.64ZM163,96.38a9.9,9.9,0,0,0-10,8.31,138.2,138.2,0,0,0-2.1,17.21c-.08,6.6,2.29,11.12,7,13.43,17.63,7.86,38.12,11.75,62.64,11.87a4.16,4.16,0,0,0,4-3.1c2.33-9.11,5.47-22.65,5.83-35.1a2.92,2.92,0,0,0-1.74-2.77C211.85,98.75,176,96.18,163,96.38ZM28.26,106.25A2.92,2.92,0,0,0,26.53,109c.36,12.42,3.5,26,5.83,35.1a4.14,4.14,0,0,0,4,3.1c24.54-.12,45-4,62.69-11.88,4.72-2.3,7.08-6.83,7-13.45A137.1,137.1,0,0,0,104,104.69a9.9,9.9,0,0,0-10-8.31C86.32,96.26,47.2,97.81,28.26,106.25Z"/><path class="cls-2" d="M358.45,150a30.4,30.4,0,0,1-4.22,9,30.94,30.94,0,0,1-7,7.33,33.85,33.85,0,0,1-9.7,5,38.44,38.44,0,0,1-12.22,1.85,40,40,0,0,1-14.36-2.59,34.76,34.76,0,0,1-12-7.63,36.55,36.55,0,0,1-8.22-12.29,42.23,42.23,0,0,1-3-16.44,40.83,40.83,0,0,1,3-15.85,36.91,36.91,0,0,1,7.92-12.07A35.59,35.59,0,0,1,310,98.51a34.44,34.44,0,0,1,13.48-2.74q17,0,26.51,10.07t9.48,27.69q0,2.08-.15,3.93t-.15,2.15H307.07a15.7,15.7,0,0,0,1.7,6.59,18.32,18.32,0,0,0,4,5.26,18,18,0,0,0,5.7,3.48,19.11,19.11,0,0,0,7,1.26q7,0,10.88-3.11a17.71,17.71,0,0,0,5.7-8Zm-18.36-23.84a17.85,17.85,0,0,0-1.11-5.26,12.69,12.69,0,0,0-3-4.59,15.29,15.29,0,0,0-5-3.26,18.69,18.69,0,0,0-7.18-1.26,16.46,16.46,0,0,0-6.81,1.33,16.77,16.77,0,0,0-5,3.41,15.08,15.08,0,0,0-3.18,4.59,14.51,14.51,0,0,0-1.26,5Z"/><path class="cls-2" d="M386,170.11a16.35,16.35,0,0,0,5.48,9.92q4.44,3.85,11.55,3.85,9.33,0,14.36-4.81t5-15.47v-5.33a20,20,0,0,1-7.26,6.44q-5,2.89-13,2.89a33.83,33.83,0,0,1-13.48-2.66,32.12,32.12,0,0,1-10.74-7.4,34.86,34.86,0,0,1-7.11-11.18,39.22,39.22,0,0,1-.08-27.84,36.32,36.32,0,0,1,7-11.33,32.14,32.14,0,0,1,10.66-7.7,33,33,0,0,1,13.77-2.82q8.73,0,13.77,3.11a18.44,18.44,0,0,1,7,6.81V98h19v65a48.26,48.26,0,0,1-2.15,14.44A32.19,32.19,0,0,1,421.1,198a43.37,43.37,0,0,1-17.47,3.18,41.38,41.38,0,0,1-13.7-2.15,36.72,36.72,0,0,1-10.74-5.78,30,30,0,0,1-7.4-8.44,27.33,27.33,0,0,1-3.55-10Zm19.55-19.4a16.35,16.35,0,0,0,12.37-5q4.81-5,4.81-13.48t-5-13.4a16.68,16.68,0,0,0-12.14-5,18.56,18.56,0,0,0-6.89,1.26,15.71,15.71,0,0,0-5.55,3.7,17.35,17.35,0,0,0-3.7,5.85,20.56,20.56,0,0,0-1.33,7.55q0,8.59,4.89,13.55A16.9,16.9,0,0,0,405.55,150.71Z"/><path class="cls-2" d="M468.82,170.11A16.35,16.35,0,0,0,474.3,180q4.44,3.85,11.55,3.85,9.33,0,14.36-4.81t5-15.47v-5.33A20,20,0,0,1,498,164.7q-5,2.89-13,2.89a33.83,33.83,0,0,1-13.48-2.66,32.12,32.12,0,0,1-10.74-7.4,34.86,34.86,0,0,1-7.11-11.18,39.22,39.22,0,0,1-.08-27.84,36.32,36.32,0,0,1,7-11.33,32.14,32.14,0,0,1,10.66-7.7A33,33,0,0,1,485,96.66q8.73,0,13.77,3.11a18.44,18.44,0,0,1,7,6.81V98h19v65a48.26,48.26,0,0,1-2.15,14.44A32.19,32.19,0,0,1,503.91,198a43.37,43.37,0,0,1-17.47,3.18,41.38,41.38,0,0,1-13.7-2.15A36.72,36.72,0,0,1,462,193.29a30,30,0,0,1-7.4-8.44,27.33,27.33,0,0,1-3.55-10Zm19.55-19.4a16.35,16.35,0,0,0,12.37-5q4.81-5,4.81-13.48t-5-13.4a16.68,16.68,0,0,0-12.14-5,18.56,18.56,0,0,0-6.89,1.26,15.71,15.71,0,0,0-5.55,3.7,17.35,17.35,0,0,0-3.7,5.85,20.56,20.56,0,0,0-1.33,7.55q0,8.59,4.89,13.55A16.9,16.9,0,0,0,488.36,150.71Z"/><path class="cls-2" d="M554,170.85H536.37V63.63H554v40.43a19.62,19.62,0,0,1,9-6.15,33.22,33.22,0,0,1,10.66-1.85,29.23,29.23,0,0,1,12.07,2.3,24,24,0,0,1,8.44,6.15,25,25,0,0,1,5,9.18,38.33,38.33,0,0,1,1.63,11.26v45.91H581.12v-42.5A16.52,16.52,0,0,0,577.93,118q-3.18-4.15-10.29-4.15-6.22,0-9.77,4.07A16.12,16.12,0,0,0,554,128.05Z"/><path class="cls-2" d="M679.71,150a30.4,30.4,0,0,1-4.22,9,30.94,30.94,0,0,1-7,7.33,33.85,33.85,0,0,1-9.7,5,38.44,38.44,0,0,1-12.22,1.85,40,40,0,0,1-14.36-2.59,34.76,34.76,0,0,1-12-7.63A36.55,36.55,0,0,1,612,150.56a42.23,42.23,0,0,1-3-16.44,40.83,40.83,0,0,1,3-15.85,36.91,36.91,0,0,1,7.92-12.07,35.59,35.59,0,0,1,11.48-7.7,34.44,34.44,0,0,1,13.48-2.74q17,0,26.51,10.07t9.48,27.69q0,2.08-.15,3.93t-.15,2.15H628.32a15.7,15.7,0,0,0,1.7,6.59,18.32,18.32,0,0,0,4,5.26,18,18,0,0,0,5.7,3.48,19.11,19.11,0,0,0,7,1.26q7,0,10.88-3.11a17.71,17.71,0,0,0,5.7-8Zm-18.36-23.84a17.85,17.85,0,0,0-1.11-5.26,12.69,12.69,0,0,0-3-4.59,15.29,15.29,0,0,0-5-3.26,18.69,18.69,0,0,0-7.18-1.26,16.46,16.46,0,0,0-6.81,1.33,16.77,16.77,0,0,0-5,3.41,15.08,15.08,0,0,0-3.18,4.59,14.51,14.51,0,0,0-1.26,5Z"/><path class="cls-2" d="M688.49,151a20.18,20.18,0,0,1,6.37-15.25,22.3,22.3,0,0,1,6.89-4.44,37.89,37.89,0,0,1,8.52-2.37l17.92-2.67q3.11-.44,4.29-1.85a5,5,0,0,0,1.19-3.33,8.79,8.79,0,0,0-3-6.66q-3-2.81-9.26-2.81-6.52,0-10,3.55a13.36,13.36,0,0,0-3.92,8.29L690,119.76a24,24,0,0,1,2.66-8.59,26.49,26.49,0,0,1,6.07-7.7,30.63,30.63,0,0,1,9.48-5.55,36.45,36.45,0,0,1,13-2.15,41.55,41.55,0,0,1,14.66,2.3,27.4,27.4,0,0,1,9.85,6.07,22.53,22.53,0,0,1,5.48,8.81,32.59,32.59,0,0,1,1.7,10.51V159.3q0,3,.3,6.29t.59,5.26H735.73a38,38,0,0,1-.52-4.07q-.22-2.59-.22-4.66a25.41,25.41,0,0,1-8.07,7.55q-5.26,3.25-13.4,3.26a28.1,28.1,0,0,1-10.44-1.85,25,25,0,0,1-7.92-4.89,20.71,20.71,0,0,1-5-7A20.41,20.41,0,0,1,688.49,151Zm29.17,7.26a22,22,0,0,0,6-.81,12.71,12.71,0,0,0,5.11-2.81,14.23,14.23,0,0,0,3.55-5.18,21,21,0,0,0,1.33-8.07v-3.26l-16.44,2.52a13,13,0,0,0-6.44,2.74q-2.59,2.15-2.59,6.44a8.44,8.44,0,0,0,2.37,5.85Q712.93,158.26,717.66,158.26Z"/><path class="cls-2" d="M836.19,157.67q0,3.7.15,7.33t.44,5.85H818a25.25,25.25,0,0,1-.52-3.55q-.22-2.37-.22-4.89a20.19,20.19,0,0,1-7.78,7.26,25.41,25.41,0,0,1-12.66,3,35.08,35.08,0,0,1-14.37-2.89,33.1,33.1,0,0,1-11.18-8,37.49,37.49,0,0,1-7.33-12.14,44.93,44.93,0,0,1-.07-30.28A37.3,37.3,0,0,1,771,107.25,35.07,35.07,0,0,1,804.42,97.1a27.18,27.18,0,0,1,6,2.22,16.93,16.93,0,0,1,4.07,2.89,12,12,0,0,1,2.3,3V63.63h19.4Zm-55.09-23.4q0,9.78,5.11,15.25a17.8,17.8,0,0,0,25.69,0q5.18-5.48,5.18-15.4t-5.18-15a18.06,18.06,0,0,0-25.55.07Q781.1,124.5,781.1,134.27Z"/><path class="cls-2" d="M846.27,163.2a7.37,7.37,0,0,1,2.16-5.35,7.11,7.11,0,0,1,5.29-2.21,7.56,7.56,0,0,1,7.56,7.56,7.11,7.11,0,0,1-2.21,5.29,7.37,7.37,0,0,1-5.35,2.16,7.38,7.38,0,0,1-7.45-7.45Z"/><path class="cls-2" d="M871,83.77a10.75,10.75,0,0,1,21.5,0,10.75,10.75,0,1,1-21.5,0Zm1.71,87V102h18.08v68.76Z"/><path class="cls-2" d="M900.25,136.31c0-19.5,13.67-36,36.3-36S973,116.8,973,136.31s-13.67,36.16-36.44,36.16S900.25,155.81,900.25,136.31Zm54,0c0-10.68-6.26-19.93-17.65-19.93S919,125.63,919,136.31s6.26,20.07,17.51,20.07S954.21,147.13,954.21,136.31Z"/></svg>