<svg id="Layer_1" data-name="Layer 1" xmlns="http://www.w3.org/2000/svg" viewBox="0 0 651 170.3"><defs><style>.cls-1{fill:#fffffb;}</style></defs><title>Artboard 43 copy</title><path class="cls-1" d="M86.84,105.76a35.72,35.72,0,0,1-5,10.53,36.35,36.35,0,0,1-8.26,8.61,39.77,39.77,0,0,1-11.39,5.83,45.16,45.16,0,0,1-14.35,2.17,47,47,0,0,1-16.87-3,40.83,40.83,0,0,1-14.09-9,42.94,42.94,0,0,1-9.66-14.44A49.62,49.62,0,0,1,3.68,87.15,48,48,0,0,1,7.16,68.53a43.36,43.36,0,0,1,9.31-14.18,41.81,41.81,0,0,1,13.48-9,40.46,40.46,0,0,1,15.83-3.22q20,0,31.14,11.83T88.06,86.45q0,2.44-.17,4.61t-.17,2.52H26.47a18.44,18.44,0,0,0,2,7.74,21.52,21.52,0,0,0,4.7,6.17,21.19,21.19,0,0,0,6.7,4.09A22.45,22.45,0,0,0,48,113.07q8.18,0,12.79-3.65a20.8,20.8,0,0,0,6.7-9.39Zm-21.57-28A21,21,0,0,0,64,71.58a14.91,14.91,0,0,0-3.48-5.39,18,18,0,0,0-5.91-3.83,22,22,0,0,0-8.44-1.48,19.34,19.34,0,0,0-8,1.57,19.7,19.7,0,0,0-5.92,4,17.72,17.72,0,0,0-3.74,5.39A17,17,0,0,0,27,77.75Z"/><path class="cls-1" d="M117.85,129.42a19.2,19.2,0,0,0,6.44,11.66q5.22,4.52,13.57,4.52,11,0,16.87-5.65t5.92-18.18V115.5a23.54,23.54,0,0,1-8.53,7.57q-5.92,3.39-15.31,3.39A39.74,39.74,0,0,1,121,123.33a37.74,37.74,0,0,1-12.61-8.7A41,41,0,0,1,100,101.5a46.07,46.07,0,0,1-.09-32.71,42.66,42.66,0,0,1,8.18-13.31,37.76,37.76,0,0,1,12.52-9,38.79,38.79,0,0,1,16.18-3.31q10.26,0,16.18,3.65t8.18,8V44.7h22.27v76.37a56.69,56.69,0,0,1-2.52,17,37.82,37.82,0,0,1-21.83,24.18Q150.55,166,138.55,166a48.61,48.61,0,0,1-16.09-2.52,43.14,43.14,0,0,1-12.61-6.78,35.25,35.25,0,0,1-8.7-9.92A32.11,32.11,0,0,1,97,135Zm23-22.79a19.21,19.21,0,0,0,14.53-5.91Q161,94.81,161,84.89t-5.91-15.74a19.59,19.59,0,0,0-14.27-5.83,21.81,21.81,0,0,0-8.09,1.48,18.45,18.45,0,0,0-6.52,4.35A20.38,20.38,0,0,0,121.85,76a24.15,24.15,0,0,0-1.57,8.87q0,10.09,5.74,15.92T140.81,106.63Z"/><path class="cls-1" d="M215.13,129.42a19.2,19.2,0,0,0,6.44,11.66q5.22,4.52,13.57,4.52,11,0,16.87-5.65t5.92-18.18V115.5a23.54,23.54,0,0,1-8.53,7.57q-5.92,3.39-15.31,3.39a39.74,39.74,0,0,1-15.83-3.13,37.74,37.74,0,0,1-12.61-8.7,41,41,0,0,1-8.35-13.13,46.07,46.07,0,0,1-.09-32.71,42.66,42.66,0,0,1,8.18-13.31,37.76,37.76,0,0,1,12.52-9,38.79,38.79,0,0,1,16.18-3.31q10.26,0,16.18,3.65t8.18,8V44.7h22.27v76.37a56.69,56.69,0,0,1-2.52,17,37.82,37.82,0,0,1-21.83,24.18Q247.84,166,235.84,166a48.61,48.61,0,0,1-16.09-2.52,43.14,43.14,0,0,1-12.61-6.78,35.25,35.25,0,0,1-8.7-9.92A32.11,32.11,0,0,1,194.26,135Zm23-22.79a19.21,19.21,0,0,0,14.53-5.91q5.65-5.91,5.65-15.83t-5.91-15.74a19.59,19.59,0,0,0-14.27-5.83A21.81,21.81,0,0,0,230,64.79a18.45,18.45,0,0,0-6.52,4.35A20.38,20.38,0,0,0,219.14,76a24.15,24.15,0,0,0-1.57,8.87q0,10.09,5.74,15.92T238.1,106.63Z"/><path class="cls-1" d="M315.22,130.29H294.49V4.34h20.73V51.83a23,23,0,0,1,10.61-7.22,39,39,0,0,1,12.53-2.17,34.33,34.33,0,0,1,14.18,2.7,28.15,28.15,0,0,1,9.92,7.22,29.38,29.38,0,0,1,5.83,10.78,45,45,0,0,1,1.91,13.22v53.93H347.06V80.36a19.4,19.4,0,0,0-3.74-12.18q-3.74-4.87-12.09-4.87-7.31,0-11.48,4.78A18.94,18.94,0,0,0,315.22,80Z"/><path class="cls-1" d="M462.88,105.76a35.72,35.72,0,0,1-5,10.53,36.35,36.35,0,0,1-8.26,8.61,39.77,39.77,0,0,1-11.39,5.83,45.16,45.16,0,0,1-14.35,2.17,47,47,0,0,1-16.87-3,40.83,40.83,0,0,1-14.09-9,42.94,42.94,0,0,1-9.66-14.44,49.62,49.62,0,0,1-3.57-19.31,48,48,0,0,1,3.48-18.62,43.36,43.36,0,0,1,9.31-14.18,41.81,41.81,0,0,1,13.48-9,40.46,40.46,0,0,1,15.83-3.22q20,0,31.14,11.83T464.1,86.45q0,2.44-.17,4.61t-.17,2.52H402.52a18.44,18.44,0,0,0,2,7.74,21.52,21.52,0,0,0,4.7,6.17,21.19,21.19,0,0,0,6.7,4.09,22.45,22.45,0,0,0,8.18,1.48q8.18,0,12.79-3.65a20.8,20.8,0,0,0,6.7-9.39Zm-21.57-28a21,21,0,0,0-1.3-6.17,14.91,14.91,0,0,0-3.48-5.39,18,18,0,0,0-5.91-3.83,22,22,0,0,0-8.44-1.48,19.34,19.34,0,0,0-8,1.57,19.7,19.7,0,0,0-5.92,4,17.72,17.72,0,0,0-3.74,5.39A17,17,0,0,0,403,77.75Z"/><path class="cls-1" d="M471.79,107a23.7,23.7,0,0,1,7.48-17.92,26.19,26.19,0,0,1,8.09-5.22,44.52,44.52,0,0,1,10-2.78l21.05-3.13q3.65-.52,5-2.17a5.88,5.88,0,0,0,1.39-3.92A10.33,10.33,0,0,0,521.28,64q-3.57-3.3-10.87-3.3-7.66,0-11.74,4.17a15.7,15.7,0,0,0-4.61,9.74l-20.53-4.35a28.2,28.2,0,0,1,3.13-10.09,31.12,31.12,0,0,1,7.13-9,36,36,0,0,1,11.13-6.52,42.82,42.82,0,0,1,15.31-2.52,48.81,48.81,0,0,1,17.22,2.7A32.18,32.18,0,0,1,539,51.92a26.46,26.46,0,0,1,6.44,10.35,38.28,38.28,0,0,1,2,12.35v42.1q0,3.48.35,7.39t.7,6.17H527.28a44.68,44.68,0,0,1-.61-4.78q-.26-3-.26-5.48a29.85,29.85,0,0,1-9.48,8.87q-6.18,3.82-15.74,3.83a33,33,0,0,1-12.27-2.17,29.33,29.33,0,0,1-9.31-5.74,24.33,24.33,0,0,1-5.83-8.18A24,24,0,0,1,471.79,107Zm34.27,8.52a25.79,25.79,0,0,0,7-1,14.93,14.93,0,0,0,6-3.3,16.72,16.72,0,0,0,4.17-6.09,24.71,24.71,0,0,0,1.57-9.48V91.84l-19.31,3A15.23,15.23,0,0,0,498,98q-3,2.52-3,7.57a9.91,9.91,0,0,0,2.78,6.87Q500.49,115.5,506.06,115.5Z"/><path class="cls-1" d="M644.86,114.81q0,4.35.17,8.61t.52,6.87H623.46a29.67,29.67,0,0,1-.61-4.17q-.26-2.78-.26-5.74a23.71,23.71,0,0,1-9.14,8.53,29.85,29.85,0,0,1-14.87,3.48A41.21,41.21,0,0,1,581.71,129a38.88,38.88,0,0,1-13.13-9.39A44,44,0,0,1,560,105.33a50.39,50.39,0,0,1-3.13-18,50,50,0,0,1,3-17.57,43.82,43.82,0,0,1,8.44-14.18,41.2,41.2,0,0,1,39.23-11.92,31.93,31.93,0,0,1,7,2.61,19.89,19.89,0,0,1,4.78,3.39,14.08,14.08,0,0,1,2.7,3.57V4.34h22.79ZM580.15,87.32q0,11.48,6,17.92a20.91,20.91,0,0,0,30.18,0q6.09-6.44,6.09-18.09,0-11.48-6.09-17.66a21.21,21.21,0,0,0-30,.09Q580.14,75.84,580.15,87.32Z"/></svg>